<?xml version="1.0" encoding="utf-8"?>
<svg xmlns="http://www.w3.org/2000/svg" width="498.627" height="273" viewBox="0 0 498.627 273">
<g transform="translate(-314.009 -345)">
 <g transform="translate(313.009 804)">
  <path d="M82.623-458.046c-38.368,5.995-67.051,36.615-71.017,75.813l-.646,6.272H43.979l1.107-7.194c4.058-26.747,29.79-45.93,56.26-41.872a53,53,0,0,1,28.315,14.3c9.684,9.684,14.3,21.121,14.3,35.324,0,14.849-3.6,22.965-17.247,39.105-4.519,5.349-17.062,20.291-27.946,33.2s-27.484,32.649-36.8,43.809c-9.407,11.16-24.533,29.237-33.664,40.12s-19,22.6-21.951,26.1A75.666,75.666,0,0,0,1-186.43c0,.277,37.537.461,83.468.461h83.468v-33.2l-47.959-.184-47.959-.277,17.8-21.213c9.776-11.713,30.159-35.97,45.285-53.954,27.484-32.742,32.373-39.567,36.8-50.726,7.194-18.354,7.1-42.149-.369-60.872-9.776-24.441-31.727-43.625-57.09-49.8C105.312-458.415,90.555-459.245,82.623-458.046Z" transform="translate(0 -0.031)" fill="#fff"/>
  <path d="M206-442.4v16.6h85.313L270.1-404.769c-11.621,11.529-30.9,30.344-42.61,41.872C215.684-351.46,206-341.592,206-341.038c0,.922,7.932,7.009,21.4,16.6l4.335,3.136,6.825-6.364c11.529-10.791,22.227-15.864,37.445-17.985,12.174-1.752,27.853,1.66,39.567,8.577,2.859,1.66,8.577,6.364,12.728,10.514l7.471,7.471,1.66-4.7A113.231,113.231,0,0,1,348.4-345.373c1.845-2.767,3.136-5.257,2.859-5.718a83.021,83.021,0,0,0-6.825-5.9,97.761,97.761,0,0,0-44.547-20.475l-8.393-1.568,40.489-39.935L372.472-458.9l-83.189-.1H206Z" transform="translate(-15.929)" fill="#fff"/>
  <path d="M440.348-371.971c-25.548,2.951-50.357,17.339-65.852,38.183-8.208,11.068-11.344,18.261-23.242,53.4-9.131,26.747-11.713,33.295-15.218,38.736-12.267,18.815-35.047,30.344-57.182,28.868a66.354,66.354,0,0,1-40.95-18.261c-3.228-2.951-6.179-5.442-6.548-5.442s-6.179,4.611-13,10.33L205.9-215.826l5.349,5.442c12.543,12.82,30.9,23.611,47.775,28.038,8.024,2.029,11.068,2.4,23.519,2.4,12.543,0,15.4-.277,23.519-2.4,21.3-5.718,40.673-18.354,53.309-35.047,7.655-9.961,11.9-18.723,18.077-37.076,17.985-53.678,18.538-54.784,29.606-66.036,12.359-12.451,26.654-18.538,44.27-18.63,14.849-.092,26.47,3.689,37.722,12.174l4.98,3.689,7.1-7.563c13.466-14.48,14.941-16.232,14.3-17.247-1.568-2.49-13.834-10.7-22.135-14.849a92.226,92.226,0,0,0-31.819-9.131C452.615-373.078,450.032-373.078,440.348-371.971Z" transform="translate(-15.921 -6.697)" fill="#fff"/>
  <path d="M413.532-222.911c-2.49,7.286-5.349,15.587-6.272,18.63l-1.66,5.442,3.6,3.136a106.205,106.205,0,0,0,40.489,20.659c15.218,3.781,34.678,3.32,49.9-1.107,7.655-2.306,23.519-9.776,23.519-11.16,0-1.107-16.509-27.484-17.155-27.484a57.249,57.249,0,0,0-6,2.859c-15.587,7.84-35.508,8.485-51.833,1.568-10.791-4.519-21.766-13.373-27.577-22.227l-2.306-3.5Z" transform="translate(-31.439 -17.32)" fill="#fff"/>
 </g>
</g>
</svg>
