<svg xmlns="http://www.w3.org/2000/svg" width="421.03" height="140.901" viewBox="0 0 421.03 140.901"><g transform="translate(-1498.55 -279.179)"><path d="M-183.52-8.769h18.981v7.548a.612.612,0,0,1-.7.7c-1.517,0-2.59-.074-5.624-.333-.222,0-.222.481,0,.518,3.478.629,4.4,1.443,4.514,2.183.074.592.185.629.555.629a5.21,5.21,0,0,0,2.109-.518,2.467,2.467,0,0,0,1.554-2.479c0-.888-.111-1.665-.148-8.251h5.328c.37,0,.481-.111.481-.37,0-.222-.111-.407-.851-1.073-1.517-1.369-1.813-1.554-2.035-1.554s-.444.185-1.887,2.072h-1.036V-20.72c.814-.555.962-.74.962-1,0-.222-.074-.37-.592-.814-1.184-1.036-1.369-1.11-1.554-1.11s-.37.074-1.406,1.258h-8.288v-5.4h15.466c.37,0,.481-.111.481-.333s-.074-.444-1-1.184c-1.813-1.443-2-1.517-2.22-1.517s-.37.111-2.109,2.109h-24.79a17,17,0,0,1-3.367-.259l.37,1.369a25.056,25.056,0,0,1,3-.185h11.84v5.4h-7.659a16.251,16.251,0,0,0-2.775-1.406c.148,1.924.185,3.256.185,10.36v3.737h-1.887a21.231,21.231,0,0,1-3.441-.259l.37,1.406a21.19,21.19,0,0,1,3.108-.222h1.85c-.074,6.364-.185,9.213-.185,10.693,0,.592.259.851,1,.851.962,0,1.406-.3,1.406-1Zm0-7.585V-21.46h8.029v5.106Zm0,.925h8.029v5.735h-8.029Zm18.981,5.735h-8.621v-5.735h8.621Zm0-6.66h-8.621V-21.46h8.621ZM-136.271-.37h-11.581a21.78,21.78,0,0,1-3.441-.222l.37,1.406a16.109,16.109,0,0,1,3.071-.259h28.527c.37,0,.518-.111.518-.333,0-.185-.111-.407-1.073-1.184-1.813-1.48-2-1.591-2.22-1.591s-.37.111-2.183,2.183h-9.657V-10.545h11.4c.37,0,.481-.148.481-.333,0-.222-.074-.407-.888-1.073-1.739-1.443-1.924-1.554-2.146-1.554s-.37.111-2.035,2.035h-6.808v-8.621h12.469c.333,0,.481-.148.481-.333,0-.259-.111-.444-.962-1.147-1.739-1.443-1.961-1.591-2.183-1.591-.185,0-.37.148-2.072,2.146h-7.733v-7.289c1.147-.444,1.369-.7,1.369-1.036,0-.444-.444-.7-3.922-1.036a85.872,85.872,0,0,1,.222,8.621v.74h-7.511a47.468,47.468,0,0,0,1.85-4.44c1.073-.259,1.443-.407,1.443-.74,0-.481-.592-.7-3.589-1.628a22.416,22.416,0,0,1-.777,3.515,36.542,36.542,0,0,1-6.105,11.655c-.148.185.259.481.407.333a25.534,25.534,0,0,0,6.29-7.77h7.992v8.621h-7.289a18.766,18.766,0,0,1-3.145-.222l.37,1.369a14.643,14.643,0,0,1,2.812-.222h7.252Zm39.553-23.014a17.992,17.992,0,0,1,2,0c5.661.3,9.768,3.959,9.768,9.583,0,7.215-7.067,10.619-13.246,11.692-.518.111-.629.3-.629.592,0,.222.222.444.629.407C-90.613-1.517-82.51-5.4-82.51-13.172c0-6.7-5.217-11.544-12.654-11.544a15.355,15.355,0,0,0-10.73,4,12.522,12.522,0,0,0-4.033,9.176,9.032,9.032,0,0,0,1.295,4.884,3.811,3.811,0,0,0,2.96,1.924c1.221,0,2.479-1.036,3.663-2.479a37.1,37.1,0,0,0,5.328-9.805,13.339,13.339,0,0,0,.7-3.626A5.168,5.168,0,0,0-96.718-23.384Zm-1.147.148a2.285,2.285,0,0,1,.444,1.554,7.558,7.558,0,0,1-.518,2.664,34.318,34.318,0,0,1-5.106,9.694c-1.147,1.517-1.924,2.146-2.59,2.146a2.227,2.227,0,0,1-1.739-1.258,7.539,7.539,0,0,1-.888-3.737,10.325,10.325,0,0,1,3-7.326A12.651,12.651,0,0,1-97.865-23.236Zm29.008,1.369a16.573,16.573,0,0,1-3.367-.259l.37,1.443a12.047,12.047,0,0,1,3-.259H-60.2A31.727,31.727,0,0,1-63.011-9.4a26.392,26.392,0,0,1-10.8,11.026c-.185.111.037.592.259.518,5.994-2.553,9.472-5.587,12.173-9.916,2.109-3.4,3.145-7.4,3.589-13.172h10.767c-.222,7.474-.74,12.913-1.628,16.28-.592,2.294-1.369,3.367-2.368,3.367a29.213,29.213,0,0,1-5.55-.814c-.222-.037-.259.481-.037.555C-53.021-.481-52.318.3-52.17,1.258c.074.407.185.444.518.444a4.977,4.977,0,0,0,2.7-.74C-47.8.185-47.1-1.221-46.509-3.367c1-3.552,1.517-9.1,1.813-16.761.814-.518,1.036-.7,1.036-.925,0-.185-.148-.407-.7-.925-1.221-1.147-1.406-1.258-1.591-1.258s-.37.148-1.443,1.369H-57.72c.148-1.924.222-4.033.259-6.4,1.036-.37,1.258-.629,1.258-.925,0-.481-.259-.666-3.959-1.073a17.47,17.47,0,0,1,.222,3.552c0,1.665-.074,3.293-.185,4.847Zm61.42,2.183a.371.371,0,0,0-.37.37.475.475,0,0,0,.148.37,9.3,9.3,0,0,1,3.034,2.96c.518.851.777,1,1.221,1a.926.926,0,0,0,.851-1,3.448,3.448,0,0,0-1.665-2.368,9.466,9.466,0,0,0-2.627-1.221A2.565,2.565,0,0,0-7.437-19.684Zm-3.108,2.294a.411.411,0,0,0-.407.407.505.505,0,0,0,.222.37,10.665,10.665,0,0,1,2.738,3c.481.925.7,1.221,1.221,1.221.555,0,.925-.407.925-1.073a3.818,3.818,0,0,0-1.591-2.405,9,9,0,0,0-2.738-1.48A1.259,1.259,0,0,0-10.545-17.39Zm-5-4.81a13.325,13.325,0,0,0-6.993,11.4,8.773,8.773,0,0,0,3.219,7.067c2.442,2.109,6.66,3.071,9.25,3.071,1.147,0,1.7-.407,1.7-.962A1.371,1.371,0,0,0-9.25-2.96a7.039,7.039,0,0,0-2.812-.629A10.857,10.857,0,0,1-18.5-5.883a7.349,7.349,0,0,1-2.516-5.994c0-4.4,3.848-8.7,7.474-9.953a21.838,21.838,0,0,1,7.178-1.221c.777-.037,1.221-.481,1.221-1a1.293,1.293,0,0,0-1-1.11,5.456,5.456,0,0,0-2.109-.481,2.262,2.262,0,0,0-1.221.37,7.658,7.658,0,0,1-1.739.592c-5.7,1.443-11.211,2.886-16.058,4.107a13.684,13.684,0,0,1-2.368.407,2.9,2.9,0,0,1-2.479-1.3c-.222-.222-.333-.333-.481-.333-.222,0-.37.222-.37.7a4.145,4.145,0,0,0,1,2.109,3.559,3.559,0,0,0,2.442,1.517,1.9,1.9,0,0,0,1.258-.407,18.659,18.659,0,0,1,2.738-1.258c3-1.073,6.549-2.183,9.916-3.182ZM-406.926,39.391a30.778,30.778,0,0,0,3.7,11.877,27.778,27.778,0,0,0,9.25,9.879,4.468,4.468,0,0,0,1.591.777c.259,0,.481-.185.629-.555.407-1.11.777-1.369,1.628-1.554.222-.037.3-.37.074-.444a23.035,23.035,0,0,1-10.952-8.029c-3.145-4.218-5.217-9.065-5.587-16.28.037-.888.037-1.776.074-2.664,1-.407,1.3-.592,1.3-.925,0-.592-.7-.777-4-1.073a38.16,38.16,0,0,1-.185,8.066c-1.147,10.508-5.476,17.612-13.986,23.273-.185.111.111.592.3.481C-413.253,57.373-408.3,50.565-406.926,39.391Zm42.957,17.538v1.147c0,.518.259.74.925.74.888,0,1.332-.259,1.332-.962,0-.555-.111-2.738-.111-7.548V47.383c.814-.481.925-.7.925-.888s-.074-.407-.629-.851c-1-.851-1.221-.962-1.406-.962s-.333.111-1.3,1.147h-8.436a23.845,23.845,0,0,0-2.59-1.258,62.951,62.951,0,0,1,.185,6.66c0,4.847-.111,6.734-.111,7.326s.259.777.962.777c.888,0,1.295-.222,1.295-.962V56.929Zm0-.925h-8.954V51.6h8.954Zm0-5.328h-8.954V46.754h8.954Zm-8.806-9.361v.592c0,.518.222.7.888.7.888,0,1.369-.259,1.369-.851,0-.518-.111-2.331-.111-6.734V32.361c.814-.518.962-.7.962-.962,0-.185-.037-.333-.592-.814-1.073-.925-1.295-1-1.48-1s-.333.074-1.369,1.221h-7.7a11.371,11.371,0,0,0-2.7-1.3c.185,2.442.222,5.291.222,14.208,0,10.841-.185,16.132-.185,18.278,0,.629.259.888.962.888,1,0,1.48-.37,1.48-1.036,0-1.85-.037-4.995-.037-15.392V41.315Zm0-.925h-8.288v-4h8.288Zm0-4.921h-8.288V31.732h8.288Zm17.427,5.846V59.334c0,.407-.185.592-.629.592-.74,0-2.146-.074-4.07-.222-.222,0-.259.481-.037.518,2.738.518,3.4,1.073,3.515,2.072.037.444.148.481.518.481a3.587,3.587,0,0,0,1.924-.592,2.39,2.39,0,0,0,1.147-2.109c0-1.147-.148-2.22-.148-17.908V32.435c.888-.518,1-.7,1-.962,0-.185-.074-.37-.629-.851-1.147-.925-1.3-1-1.517-1-.185,0-.3.074-1.369,1.184H-363.6a15.718,15.718,0,0,0-2.627-1.3,49.855,49.855,0,0,1,.185,5.439c0,4.292-.111,6.031-.111,6.882,0,.592.259.777.925.777.925,0,1.295-.259,1.295-.888v-.407Zm0-.925h-8.584v-4h8.584Zm0-4.921h-8.584V31.732h8.584Zm25.53,1.147a17.993,17.993,0,0,1,2,0c5.661.3,9.768,3.959,9.768,9.583,0,7.215-7.067,10.619-13.246,11.692-.518.111-.629.3-.629.592,0,.222.222.444.629.407,7.585-.407,15.688-4.292,15.688-12.062,0-6.7-5.217-11.544-12.654-11.544a15.355,15.355,0,0,0-10.73,4,12.522,12.522,0,0,0-4.033,9.176,9.032,9.032,0,0,0,1.295,4.884,3.811,3.811,0,0,0,2.96,1.924c1.221,0,2.479-1.036,3.663-2.479a37.1,37.1,0,0,0,5.328-9.805,13.339,13.339,0,0,0,.7-3.626A5.168,5.168,0,0,0-329.818,36.616Zm-1.147.148a2.285,2.285,0,0,1,.444,1.554,7.558,7.558,0,0,1-.518,2.664,34.317,34.317,0,0,1-5.106,9.694c-1.147,1.517-1.924,2.146-2.59,2.146a2.227,2.227,0,0,1-1.739-1.258,7.54,7.54,0,0,1-.888-3.737,10.325,10.325,0,0,1,3-7.326A12.651,12.651,0,0,1-330.965,36.764Zm40.071,13.912v1.739c0,.666.259.851.962.851,1,0,1.443-.259,1.443-1.036,0-.592-.111-2.775-.111-7.992V40.945c.814-.555.962-.7.962-.962,0-.222-.111-.444-.629-.851-1.11-.925-1.332-1.036-1.517-1.036s-.333.111-1.406,1.221h-8.029a12.9,12.9,0,0,0-2.775-1.369,67.452,67.452,0,0,1,.185,7.548c0,5.106-.111,7.4-.111,8.029,0,.555.222.74.962.74.962,0,1.406-.222,1.406-.962V50.676Zm0-.925h-8.658V40.242h8.658Zm11.655-16.872h5.143c.37,0,.518-.148.518-.333,0-.222-.111-.444-1-1.147-1.85-1.443-2.072-1.591-2.294-1.591-.185,0-.407.148-2.109,2.146h-24.9a21.6,21.6,0,0,1-3.4-.222l.37,1.369a15.814,15.814,0,0,1,3.034-.222h22.311V58.557c0,.518-.185.7-.666.7-1.295,0-2.96-.037-5.846-.222-.222,0-.259.518-.037.555,3.922.7,4.514,1.221,4.7,2.257.074.481.148.555.407.555A7.347,7.347,0,0,0-280.83,62a2.644,2.644,0,0,0,1.739-2.664c0-1.11-.148-5.55-.148-11.655ZM-254.56,37.5a6.673,6.673,0,0,1,.3.777c.518,1.48.666,1.739,1.295,1.739a1.236,1.236,0,0,0,1.073-1.369c0-1.85-2.109-4.255-5.217-5.661-.185-.074-.407.148-.259.3a14.583,14.583,0,0,1,2.479,3.515c-2.96.333-5.957.592-8.917.629A33.883,33.883,0,0,0-260,31.658c1.258-.259,1.48-.37,1.48-.74,0-.407-.666-.7-3.626-1.554a9.091,9.091,0,0,1-.481,2.294,39.7,39.7,0,0,1-2.183,5.772,26.5,26.5,0,0,1-3.33-.148c.7,3.145.74,3.219,1.073,3.219.3,0,.481-.185.777-1.073A71.867,71.867,0,0,0-254.56,37.5Zm-1.369,15.762v5.7c0,.481-.185.666-.629.666-.851,0-1.628-.037-3.33-.148-.222,0-.259.407-.037.444,2.22.518,2.59.962,2.738,1.776.074.555.185.592.444.592a4.42,4.42,0,0,0,1.776-.481,2.392,2.392,0,0,0,1.221-2.368c0-1.221-.111-2.22-.111-10.471V44.09c.888-.592,1-.777,1-1.036,0-.185-.111-.333-.629-.777-1.073-.925-1.258-1-1.443-1s-.37.074-1.332,1.11h-7.215a11.307,11.307,0,0,0-2.59-1.3c.185,2.294.185,4.551.185,11.285,0,5.624-.185,8.1-.185,9.213,0,.592.222.851.888.851.962,0,1.369-.3,1.369-1.036v-8.14Zm0-.925h-7.881v-4.07h7.881Zm0-4.995h-7.881V43.313h7.881Zm8.251-15.947c1.073-.444,1.258-.666,1.258-.962,0-.444-.333-.592-3.663-1a57.339,57.339,0,0,1,.185,6.179c0,4.033-.037,5.032-.037,5.587,0,2.7.888,3.293,7.252,3.293a25.235,25.235,0,0,0,5.772-.481c1.073-.3,1.776-.851,1.776-1.48a.836.836,0,0,0-.592-.888c-.37-.111-.518-.259-.481-.74,0-.7.074-1.813.111-2.627a.208.208,0,0,0-.407-.037,9.464,9.464,0,0,1-1.554,3.4c-.555.592-1.517.851-4.736.851-4.551,0-4.884-.259-4.884-1.628V37.763a31.5,31.5,0,0,0,9.324-4.329c1.184.222,1.7.074,1.7-.333,0-.37-.925-1.221-2.59-2.294a10.3,10.3,0,0,1-2.294,2.331,35.325,35.325,0,0,1-6.142,3.811Zm-.074,16.317c1.11-.444,1.258-.666,1.258-1s-.3-.481-3.589-.888c.111,1.3.148,2.886.148,6.623,0,4.218-.074,5.291-.074,5.883,0,2.738,1.036,3.367,7.1,3.367a24.107,24.107,0,0,0,5.846-.481c1.11-.3,1.813-.851,1.813-1.48a.862.862,0,0,0-.592-.888.632.632,0,0,1-.444-.629c0-.555.148-2,.222-3.182a.234.234,0,0,0-.444-.074c-.666,2.146-1.221,3.552-1.961,4.144-.666.518-1.406.592-4.588.592-4.292,0-4.7-.259-4.7-1.7V53.784a33.531,33.531,0,0,0,9.583-4.144c1.258.259,1.7.148,1.7-.222s-1.073-1.332-2.59-2.331a11.544,11.544,0,0,1-2.553,2.368,34,34,0,0,1-6.142,3.552Zm33.3-7.955a47.51,47.51,0,0,0,1.591-4.588c1.11-.3,1.221-.518,1.221-.814,0-.407-.259-.555-3.4-1.369a24.45,24.45,0,0,1-.518,3.515,31.229,31.229,0,0,1-4.44,10.8c-.111.185.259.444.407.3a23.516,23.516,0,0,0,4.736-6.919h5.661v8.4H-214.3a12.122,12.122,0,0,1-2.775-.259l.37,1.369a13.832,13.832,0,0,1,2.442-.185h5.069V60.185h-7.77A17,17,0,0,1-220,59.963l.333,1.369a17.788,17.788,0,0,1,2.738-.222h20.72c.37,0,.481-.111.481-.333,0-.185-.111-.37-.888-1.036-1.665-1.369-1.924-1.48-2.146-1.48-.185,0-.37.111-1.887,1.924h-6.216V50.01h8.732c.37,0,.481-.148.481-.333,0-.222-.111-.444-.814-1.036-1.628-1.369-1.813-1.443-2.035-1.443s-.37.074-1.85,1.887h-4.514v-8.4h9.731c.333,0,.481-.111.481-.37,0-.185-.074-.37-.777-1-1.591-1.369-1.887-1.48-2.072-1.48-.222,0-.407.111-1.85,1.924h-5.513v-8.1c1.073-.407,1.295-.666,1.295-.962,0-.444-.444-.7-3.811-1.036.148,1.406.185,4,.185,8.769v1.332Zm-6.771-3.293a8.42,8.42,0,0,1,1,4c.037,1.073.37,1.369.888,1.369.592,0,1.147-.444,1.147-1.48,0-1.221-1.036-2.886-2.7-4.107C-221.038,36.135-221.3,36.32-221.223,36.468Zm-5.809.592c-.259,2.738-.925,4.218-2.183,5.254-.518.444-.777.777-.777,1.258a1.22,1.22,0,0,0,1.184,1.3c1.517,0,2.59-1.887,2.59-4.847a14.79,14.79,0,0,0-.333-2.96C-226.588,36.838-227,36.838-227.032,37.06Zm4.81-5.809c1.073-.444,1.221-.7,1.221-.925,0-.444-.333-.592-3.663-.962.185,1.48.185,3.589.185,12.321,0,14.874-.185,19.018-.185,20.239,0,.629.37.925,1.11.925,1,0,1.48-.37,1.48-1.147,0-1.258-.148-5.476-.148-19.684Zm41.847,13.32c1.332-1.887,2.479-3.848,3.663-5.92a45.7,45.7,0,0,0,6.364-1.961c.925-.37,1.184-.592,1.184-1.147,0-.481-.481-.925-1.221-.925a4.148,4.148,0,0,0-1.887.666,17.539,17.539,0,0,1-3.4,1.406c.3-.555.629-1.184.851-1.591a2.836,2.836,0,0,1,.962-1.184.888.888,0,0,0,.444-.814c0-.74-1-1.369-1.628-1.665a5.161,5.161,0,0,0-2.183-.592,2.99,2.99,0,0,0-1.369.333.737.737,0,0,0-.407.555c0,.148.148.185.407.185,1.591,0,2.294.407,2.294,1a5.287,5.287,0,0,1-.259,1.369,23.179,23.179,0,0,1-1.11,2.812,22.95,22.95,0,0,1-4.588.592,3.724,3.724,0,0,1-3.108-1.073.888.888,0,0,0-.592-.333c-.185,0-.333.259-.333.481a1.255,1.255,0,0,0,.185.518,4.088,4.088,0,0,0,4,2,30.511,30.511,0,0,0,3.552-.3,40.274,40.274,0,0,1-2.664,4.44,38.655,38.655,0,0,1-3.737,4.477c-.814.851-1.073,1.221-1.073,1.813a1.082,1.082,0,0,0,1,1.147,1.394,1.394,0,0,0,.925-.555,24.944,24.944,0,0,1,3.33-3.959c1.443-1.369,3.071-2.442,4.7-2.442,1.147,0,1.85.666,1.813,3.219v1.554c-3.478,2.109-6.438,4.107-6.438,7.511,0,2.664,1.813,4.514,7.7,4.514,3,0,5.18-.074,6.993-.222,1.628-.148,2.146-.518,2.146-1.184,0-.74-.925-1.48-2.257-1.48a5.873,5.873,0,0,0-1.406.222,17.113,17.113,0,0,1-2.035.37,53.1,53.1,0,0,1-5.587.3c-3,0-4.292-1.073-4.292-2.738,0-2.664,3.034-4.366,5.143-5.55-.037,2.072-.111,3.478-.111,4.625a1.026,1.026,0,0,0,1.036,1c.481,0,1-.407,1-1.406,0-2.109-.037-3.774-.037-5.328,1.11-.629,2.257-1.295,3.256-1.85,2.627-1.406,4.958-2.516,6.734-3.256a3.8,3.8,0,0,1,1.11-.3.751.751,0,0,0,.74-.777c0-.7-.555-1.147-1.517-1.739a5.567,5.567,0,0,0-2.738-.888c-.777,0-1.48.259-1.48.592,0,.185.111.185.333.222a2.964,2.964,0,0,1,1.295.444c.222.148.333.3.333.481,0,.222-.074.407-.407.629-2.146,1.443-4.921,3.108-7.659,4.736,0-.481-.037-1.073-.074-1.517-.111-2.183-1.369-3.293-3.293-3.293a8.157,8.157,0,0,0-4.514,1.85Zm41,7.215v7.141c0,.444-.222.592-.629.592a36.884,36.884,0,0,1-3.7-.259c-.222-.037-.259.407-.037.481,2.479.629,2.849,1.073,3,1.85.074.555.148.592.592.592a3.7,3.7,0,0,0,1.628-.444,2.23,2.23,0,0,0,1.221-2.109c0-1.3-.111-2.516-.111-12.987V40.168c.814-.481.925-.7.925-.925,0-.185-.111-.407-.629-.851-.925-.777-1.11-.851-1.3-.851s-.333.074-1.221,1.073h-3.108a30.691,30.691,0,0,0,3.145-4c1-.259,1.295-.444,1.295-.74,0-.259-.185-.518-.666-1-.888-.888-1.147-1.073-1.406-1.073-.185,0-.407.148-1.221,1.147h-3.811c.3-.629.592-1.3.851-2,1-.222,1.258-.37,1.258-.74,0-.333-1-.777-3.145-1.3a15.809,15.809,0,0,1-.888,3.515,29.42,29.42,0,0,1-4.958,8.547c-.148.185.148.444.333.3a31.888,31.888,0,0,0,2.775-2.627c.037.925.037,1.887.037,4.773a72.636,72.636,0,0,1-.592,10.4,24.346,24.346,0,0,1-2.849,8.658c-.111.185.3.444.444.259a16.921,16.921,0,0,0,4.181-8.621c.148-.777.3-1.517.407-2.331Zm-8.066-.925c.185-1.813.259-3.626.3-5.439h2.886v5.439Zm8.066,0h-3.071V45.422h3.071Zm0-6.364h-3.071V39.539h3.071Zm-4.884-4.958V44.5h-2.886V39.539Zm2.627-5.661a31.342,31.342,0,0,1-2.072,4.736h-3.108a16.626,16.626,0,0,0-1.554-.888,20.254,20.254,0,0,0,2.516-3.848Zm11.729-1.776c-.407,4.662-2.183,7.437-6.364,9.842-.185.111.037.518.259.444,5.476-1.924,7.918-4.847,8.362-10.286h5.106a27.027,27.027,0,0,1-.592,5.4c-.259,1.036-.518,1.517-1.073,1.517a32.077,32.077,0,0,1-3.737-.259c-.222-.037-.259.407-.037.444,2.553.629,3.108,1.036,3.219,1.776.074.481.111.518.407.518a4.367,4.367,0,0,0,2-.629,3.647,3.647,0,0,0,1.11-1.924,30.632,30.632,0,0,0,.851-6.142c.814-.555,1.036-.777,1.036-.962,0-.222-.037-.407-.592-.888-1.036-.888-1.258-.962-1.406-.962-.185,0-.37.111-1.369,1.184h-9.8a16.352,16.352,0,0,1-3-.222l.333,1.406a12.054,12.054,0,0,1,2.664-.259Zm-2.072,14.874a20.641,20.641,0,0,0,1.147-2.22c.925-.185,1.295-.37,1.295-.7,0-.37-.814-.74-3.108-1.258a11.582,11.582,0,0,1-.629,2.553,19.05,19.05,0,0,1-3.182,6.031c-.148.185.185.481.37.333a16.381,16.381,0,0,0,3.552-3.811h4.4v4.847h-5a14.731,14.731,0,0,1-2.775-.222l.37,1.332a13.685,13.685,0,0,1,2.4-.185h5c-.037,5.365-.148,7.511-.148,8.251,0,.592.3.851.962.851.962,0,1.406-.333,1.406-1.036s-.111-2.923-.148-8.066h7.7c.37,0,.481-.111.481-.333s-.111-.407-.74-.962c-1.48-1.332-1.7-1.443-1.887-1.443s-.37.111-1.7,1.813h-3.848V47.9h6.845c.37,0,.481-.111.481-.333s-.111-.444-.74-1c-1.332-1.184-1.554-1.3-1.776-1.3-.185,0-.37.111-1.591,1.7h-3.219V43.794c.962-.407,1.11-.629,1.11-.888,0-.444-.518-.666-3.367-.925a36.283,36.283,0,0,1,.185,4.995Zm36.445-8.732a43.129,43.129,0,0,0,5.772-2.553,1.181,1.181,0,0,0,.592-1.036.918.918,0,0,0-.962-.888A4.466,4.466,0,0,0-92.5,34.8a7.055,7.055,0,0,1-1.073.666,18.486,18.486,0,0,1-2.4,1.073c-.148-.666-.259-1.332-.37-2.072-.148-.888-.185-1.184-.037-1.554A2.527,2.527,0,0,0-96.2,32.1c0-.333-.333-.7-1.147-1a7.382,7.382,0,0,0-2.738-.481,2.267,2.267,0,0,0-1.332.481.756.756,0,0,0-.3.481c0,.185.111.333.407.3,1.48-.111,2.257.37,2.59,1.332.444,1.369.888,2.59,1.295,3.885A20.5,20.5,0,0,1-103.9,38.5a6.3,6.3,0,0,1-3-.666,1.412,1.412,0,0,0-.481-.148.406.406,0,0,0-.333.407.812.812,0,0,0,.3.555,6.026,6.026,0,0,0,4.181,1.406A19.4,19.4,0,0,0-96.9,38.725c.592,1.591,1.221,3.4,1.961,5.18a19.541,19.541,0,0,1-6.475,1.221c-1.517,0-1.887-.444-1.887-1.073a4.781,4.781,0,0,1,.111-1.073,1.836,1.836,0,0,0,.111-.481c0-.222-.222-.3-.407-.3-.111,0-.333.185-.481.444a3.6,3.6,0,0,0-.518,1.739c0,1.628,1.406,2.368,3.478,2.368A24.2,24.2,0,0,0-94.2,45.422a58.862,58.862,0,0,0,2.923,5.439,41.661,41.661,0,0,0-5.735-.407c-3.885,0-8.547,1.11-8.547,5.069,0,4.625,6.66,5.957,10.73,5.957,2.479,0,3.182-.222,3.182-1.258,0-.814-.666-1.258-1.887-1.258-.74,0-1.739.111-2.479.111-2.442,0-8.14-.37-8.14-3.774,0-2.96,3.848-3.515,6.068-3.515a22.794,22.794,0,0,1,5.254.629A4.728,4.728,0,0,1-90.1,53.932a1,1,0,0,0,.814.37c.481,0,.888-.407.888-1.554a3.871,3.871,0,0,0-1.073-2.516,35.258,35.258,0,0,1-3.4-5.328A27.9,27.9,0,0,0-86.8,41.648a1.339,1.339,0,0,0,.592-1.073c0-.37-.555-.7-1.11-.666-.407.037-.7.111-1.036.111a3.437,3.437,0,0,1-1.073-.259,9.964,9.964,0,0,1-1.406-.666,1.227,1.227,0,0,0-.555-.185c-.148,0-.333.111-.333.259,0,.185.111.3.37.481a13.226,13.226,0,0,1,1.48,1.369.382.382,0,0,1,.148.3c0,.074-.111.185-.222.259a22.077,22.077,0,0,1-3.626,1.85A42.257,42.257,0,0,1-95.534,38.244Zm44.807,16.391A23.67,23.67,0,0,0-43.4,61.184a4.316,4.316,0,0,0,1.443.629c.259,0,.407-.148.518-.555.333-1.073.666-1.332,1.48-1.554.222-.074.3-.333.074-.407A22.188,22.188,0,0,1-48.8,53.9c-.3-.3-.555-.592-.851-.925a24.073,24.073,0,0,0,3.145-6.327,38.333,38.333,0,0,0,1.739-8.621h4.033c.37,0,.481-.111.481-.333s-.111-.407-.814-1.036c-1.554-1.295-1.924-1.517-2.109-1.517s-.444.222-1.924,1.961h-8.436a45.243,45.243,0,0,0,1.665-5.328c.814-.185,1.221-.37,1.221-.74,0-.518-.3-.666-3.515-1.332a23.8,23.8,0,0,1-.592,4.292,41.06,41.06,0,0,1-4.81,12.4c-.111.185.259.444.407.259a24.483,24.483,0,0,0,3.4-4.736,33.647,33.647,0,0,0,3.811,10.915,28.576,28.576,0,0,1-10.138,8.917c-.185.111.074.555.3.481a26.6,26.6,0,0,0,10.952-7.7ZM-47.1,38.022a32.047,32.047,0,0,1-3.848,13.246,24.776,24.776,0,0,1-2.479-4.7,42.8,42.8,0,0,1-1.739-5.735c.481-.925.888-1.85,1.3-2.812Zm-22.681-.666c0,12.543-1.295,18.833-5.032,24.42-.111.185.222.444.37.3,4.181-4.144,6.179-9.4,6.734-18.241h4.847a81.384,81.384,0,0,1-1,11.951c-.481,2.257-.851,3.293-1.665,3.293a19.9,19.9,0,0,1-3.774-.481c-.222-.037-.259.407-.037.481,2.368.74,2.886,1.332,2.96,2.22.037.407.148.407.555.407a3.751,3.751,0,0,0,1.961-.592c1-.7,1.48-2.072,1.961-4.255.592-2.59.925-6.216,1.184-12.358.74-.444.888-.629.888-.814s-.074-.444-.592-.888c-1.11-.962-1.258-1.073-1.443-1.073-.222,0-.333.111-1.332,1.184h-4.477l.111-3.737V37.356H-58.2c.37,0,.518-.111.518-.333s-.111-.444-.814-1.036c-1.517-1.221-1.7-1.369-1.887-1.369-.222,0-.407.148-1.739,1.813h-3.626V31.584c1.036-.444,1.221-.7,1.221-.962,0-.407-.407-.666-3.589-1.036a22.4,22.4,0,0,1,.148,3.034v3.811h-3.589a12.757,12.757,0,0,1-2.849-.259L-74,37.578a13.938,13.938,0,0,1,2.442-.222Zm55.833-.111a19.574,19.574,0,0,0-7.7,1.887,77.277,77.277,0,0,0-6.993,3.515,4.2,4.2,0,0,1-2,.7,3.013,3.013,0,0,1-2.146-1.184.64.64,0,0,0-.444-.222c-.185,0-.333.185-.333.814A3.932,3.932,0,0,0-32.3,44.83,4.349,4.349,0,0,0-29.859,46.2a1.481,1.481,0,0,0,1.3-.629,9.1,9.1,0,0,1,1.628-1.406A49.778,49.778,0,0,1-21.2,40.649a16.259,16.259,0,0,1,7.215-2.072c3.774,0,7.1,2.405,7.1,6.142,0,3.589-2.072,5.994-4.958,7.807-3.367,2.146-7.067,3.034-11.063,3.7-.518.074-.666.259-.666.518,0,.407.259.592.666.555a31.766,31.766,0,0,0,12.728-3.441C-6.623,51.823-4.4,49.307-4.4,45.385-4.4,41.13-8.029,37.245-13.949,37.245Z" transform="translate(1922 310)" fill="#222"/><path d="M-294.98-7.48c.46.04,1,.06,1.5.06.32,0,.72-.02.98-.04.94,1.74,1.92,3.52,2.92,5.26a14.9,14.9,0,0,1,.74,1.5c.56-.02.86-.02,1.36-.02.54,0,1.12.04,1.84.08.12,0,.16-.06.16-.26s-.04-.24-.18-.26a2.924,2.924,0,0,1-1.2-.28,4.061,4.061,0,0,1-1.22-1.46,54.215,54.215,0,0,1-2.72-4.82c2.1-.6,3.14-1.94,3.14-3.54,0-2.16-1.6-3.6-4.96-3.6-1.32,0-2.58.1-3.28.1-.76,0-1.82-.04-2.62-.08-.1,0-.16.04-.16.32,0,.18.02.22.16.24,1.26.1,1.52.22,1.7.48s.22.5.22,2.2v7.34c0,1.98-.06,2.3-.24,2.62-.14.24-.38.38-1.5.48-.14.02-.18.06-.18.26,0,.22.04.26.18.26.74-.04,1.76-.08,2.54-.08.8,0,1.78.04,2.6.08.16,0,.2-.04.2-.26,0-.2-.04-.24-.22-.26-1.12-.08-1.38-.22-1.54-.48-.18-.28-.22-.6-.22-2.62Zm0-4c0-1.7.08-2.08.26-2.32.2-.26.54-.38,1.66-.38,2.42,0,3.56,1.12,3.56,3.04,0,1.88-1.36,3.08-4,3.08a11,11,0,0,1-1.48-.1Zm13.04,5.62c.62-.02,1.28-.02,1.96-.02,1.24,0,2.56.02,3.94.06a.27.27,0,0,0,.2-.1.276.276,0,0,0,.1-.24,3.61,3.61,0,0,0-3.6-3.54c-2.44,0-4.28,2.06-4.28,4.76A4.275,4.275,0,0,0-279.3-.32a3.712,3.712,0,0,0,3.36-1.86.43.43,0,0,0,.12-.26c0-.1-.2-.26-.34-.26a.151.151,0,0,0-.14.08,3,3,0,0,1-2.72,1.4c-1.48,0-2.98-1.52-2.98-3.82A6.32,6.32,0,0,1-281.94-5.86Zm.12-.7c.4-1.66,1.38-2.56,2.48-2.56,1.06,0,1.82.92,1.94,2.24,0,.16-.06.26-.2.26-.92.06-1.74.08-2.58.08C-280.7-6.54-281.24-6.54-281.82-6.56Zm12.3,4.68c-.98,0-1.34-.28-1.34-.62,0-.48.34-.92,1.18-1.36a2.666,2.666,0,0,0,.56.06c2.1,0,3.4-1.24,3.4-3.02a2.519,2.519,0,0,0-.78-1.78c.6,0,1.3,0,1.98.06.1,0,.14-.02.2-.14l.24-.6c0-.1-.04-.12-.12-.12-.82.08-2.02.14-3.1.14a4.059,4.059,0,0,0-1.82-.44,3.243,3.243,0,0,0-3.46,3,2.758,2.758,0,0,0,2.2,2.72c-1.26.56-1.84,1.18-1.84,1.88,0,.68.28,1.06,1.26,1.36-1.28.5-1.98,1.32-1.98,2.32,0,1.38,1.6,2.5,3.94,2.5,3.28,0,4.86-1.52,4.86-3.46,0-1.68-1-2.54-3.36-2.54Zm1.78,1.38c1.64,0,2.28.48,2.28,1.5,0,1.36-1.22,2.52-3.18,2.52-1.7,0-2.8-.88-2.8-2.24a2.032,2.032,0,0,1,.7-1.54,3.349,3.349,0,0,1,.48-.3c.42.04.86.06,1.3.06Zm-1.38-8.68c1.06,0,1.92.88,1.92,2.4,0,1.56-.84,2.46-1.9,2.46-1.1,0-1.92-.88-1.92-2.46C-271.02-8.3-270.24-9.18-269.12-9.18Zm9.46,3.32c.62-.02,1.28-.02,1.96-.02,1.24,0,2.56.02,3.94.06a.27.27,0,0,0,.2-.1.276.276,0,0,0,.1-.24,3.61,3.61,0,0,0-3.6-3.54c-2.44,0-4.28,2.06-4.28,4.76a4.275,4.275,0,0,0,4.32,4.62,3.712,3.712,0,0,0,3.36-1.86.43.43,0,0,0,.12-.26c0-.1-.2-.26-.34-.26a.151.151,0,0,0-.14.08,3,3,0,0,1-2.72,1.4c-1.48,0-2.98-1.52-2.98-3.82A6.32,6.32,0,0,1-259.66-5.86Zm.12-.7c.4-1.66,1.38-2.56,2.48-2.56,1.06,0,1.82.92,1.94,2.24,0,.16-.06.26-.2.26-.92.06-1.74.08-2.58.08C-258.42-6.54-258.96-6.54-259.54-6.56Zm9.56-1.76c.26,0,.42.12.56.42a4.129,4.129,0,0,1,.16,1.62v2.8c0,1.54-.06,1.86-.18,2.04-.14.2-.3.3-1.02.36-.12.02-.16.06-.16.22,0,.18.04.22.16.22.6-.02,1.34-.04,2-.04.6,0,1.28.02,1.88.04.12,0,.16-.04.16-.22,0-.16-.04-.2-.16-.22-.84-.08-.98-.14-1.12-.36-.1-.16-.14-.4-.14-2.04V-6.04a2.12,2.12,0,0,1,.44-1.54,2.469,2.469,0,0,1,2.02-1.12,1.726,1.726,0,0,1,1.72,1.02,2.172,2.172,0,0,1,.22,1.14v3.06c0,1.66-.06,1.86-.18,2.04-.14.22-.36.32-1.02.36-.14.02-.18.06-.18.22,0,.18.04.22.18.22.62-.02,1.36-.04,2-.04.6,0,1.3.02,1.88.04.14,0,.18-.04.18-.22,0-.16-.04-.2-.18-.22-.76-.08-.94-.16-1.06-.36s-.16-.4-.16-2.04V-4.74c0-.5.02-1.48.02-2.2a2.65,2.65,0,0,0-2.84-2.74,3.589,3.589,0,0,0-3.04,1.84c0-.52.02-1.08.04-1.6,0-.1-.08-.18-.22-.18a18.89,18.89,0,0,1-2.58.82c-.22.04-.26.1-.26.22,0,.26.04.3.18.3Zm13.74,2.46c.62-.02,1.28-.02,1.96-.02,1.24,0,2.56.02,3.94.06a.27.27,0,0,0,.2-.1.276.276,0,0,0,.1-.24,3.61,3.61,0,0,0-3.6-3.54c-2.44,0-4.28,2.06-4.28,4.76A4.275,4.275,0,0,0-233.6-.32a3.712,3.712,0,0,0,3.36-1.86.43.43,0,0,0,.12-.26c0-.1-.2-.26-.34-.26a.151.151,0,0,0-.14.08,3,3,0,0,1-2.72,1.4c-1.48,0-2.98-1.52-2.98-3.82A6.316,6.316,0,0,1-236.24-5.86Zm.12-.7c.4-1.66,1.38-2.56,2.48-2.56,1.06,0,1.82.92,1.94,2.24,0,.16-.06.26-.2.26-.92.06-1.74.08-2.58.08C-235-6.54-235.54-6.54-236.12-6.56Zm9.62-1.76c.24,0,.38.1.54.42a3.621,3.621,0,0,1,.18,1.62v2.8c0,1.48-.06,1.84-.2,2.04-.14.22-.28.3-1.06.36-.14.02-.18.06-.18.22,0,.18.04.22.18.22.6-.02,1.44-.04,2.04-.04s1.38.02,1.98.04c.1,0,.16-.04.16-.22,0-.16-.04-.2-.16-.22-.88-.06-1.08-.18-1.18-.36-.12-.22-.14-.42-.14-2.04V-5.8a2.463,2.463,0,0,1,.58-1.68c.4-.54.68-.74.98-.74a1.116,1.116,0,0,1,.52.18,1.166,1.166,0,0,0,.56.18c.4,0,.98-.64.98-1.26,0-.3-.44-.56-1.08-.56-.8,0-1.64.66-2.54,2.12,0-.76.02-1.3.04-1.88,0-.1-.1-.18-.24-.18a15.606,15.606,0,0,1-2.62.82c-.2.06-.24.1-.24.28,0,.2.04.24.18.24Zm14.72,1.18c.02-1.88-.7-2.56-2.68-2.56-1.9,0-3.6,1.24-3.6,2.32a.477.477,0,0,0,.54.54c.76,0,1.28-.4,1.28-.86a1.189,1.189,0,0,1,.36-.98,1.92,1.92,0,0,1,1.36-.48c.88,0,1.28.62,1.28,2.04v.52a1.017,1.017,0,0,1-.44.76,5.569,5.569,0,0,1-1.58.68,5.649,5.649,0,0,0-2.38,1.06,2.277,2.277,0,0,0-.68,1.76,2.07,2.07,0,0,0,2.3,2.02,3.841,3.841,0,0,0,2.86-1.1,1.447,1.447,0,0,0,1.42,1,2.579,2.579,0,0,0,1.48-.5.145.145,0,0,0,.08-.12c0-.14-.12-.3-.22-.3a.461.461,0,0,0-.18.06.732.732,0,0,1-.48.16c-.46,0-.78-.46-.76-1.7Zm-1.48,4.38a1.827,1.827,0,0,1-2.02,1.68,1.487,1.487,0,0,1-1.46-1.54c0-.98.5-1.52,1.66-1.96,1.26-.46,1.62-.66,1.84-.94Zm6.46-5.84-.04,2.74c0,.9-.04,1.8-.04,2.72a3.043,3.043,0,0,0,.6,2.14,2.389,2.389,0,0,0,1.86.68,2.907,2.907,0,0,0,2.1-1.06.173.173,0,0,0,.06-.12.383.383,0,0,0-.3-.32.173.173,0,0,0-.12.06,1.845,1.845,0,0,1-1.26.54A1.28,1.28,0,0,1-205-1.74a3.271,3.271,0,0,1-.4-2l.04-4.9c.68,0,1.78,0,2.5.06a.192.192,0,0,0,.2-.14l.18-.56c0-.1-.02-.12-.12-.12-.8.02-1.98.04-2.72.04,0-.6.04-1.42.06-1.92,0-.16-.04-.2-.26-.2-.2,0-.26.06-.3.18a4.505,4.505,0,0,1-.8,1.36,2.913,2.913,0,0,1-1.42.8c-.18.04-.2.1-.2.3,0,.24.04.26.2.26Zm8.18,5.08c0,1.6-.04,1.9-.16,2.06-.14.18-.32.26-1.1.34-.12.02-.16.06-.16.22,0,.22.04.26.16.26.58-.02,1.42-.04,2.04-.04.6,0,1.34.02,1.94.04.12,0,.16-.04.16-.26,0-.16-.04-.2-.16-.22-.82-.06-1.08-.16-1.18-.34s-.12-.44-.12-2.06v-2.5c0-.94.02-2.02.08-3.44q0-.18-.24-.18a24.741,24.741,0,0,1-2.66.82c-.2.06-.24.08-.24.26,0,.22.04.26.16.26l.74-.04a.575.575,0,0,1,.58.4,4.659,4.659,0,0,1,.16,1.64Zm.58-11.62a1.2,1.2,0,0,0-1.12,1.12,1.158,1.158,0,0,0,1.12,1.12,1.158,1.158,0,0,0,1.12-1.12A1.2,1.2,0,0,0-198.04-15.14Zm5.48,6.82c.26,0,.42.12.56.42a4.129,4.129,0,0,1,.16,1.62v2.8c0,1.54-.06,1.86-.18,2.04-.14.2-.3.3-1.02.36-.12.02-.16.06-.16.22,0,.18.04.22.16.22.6-.02,1.34-.04,2-.04.6,0,1.28.02,1.88.04.12,0,.16-.04.16-.22,0-.16-.04-.2-.16-.22-.84-.08-.98-.14-1.12-.36-.1-.16-.14-.4-.14-2.04V-6.04a2.12,2.12,0,0,1,.44-1.54,2.469,2.469,0,0,1,2.02-1.12,1.726,1.726,0,0,1,1.72,1.02,2.172,2.172,0,0,1,.22,1.14v3.06c0,1.66-.06,1.86-.18,2.04-.14.22-.36.32-1.02.36-.14.02-.18.06-.18.22,0,.18.04.22.18.22.62-.02,1.36-.04,2-.04.6,0,1.3.02,1.88.04.14,0,.18-.04.18-.22,0-.16-.04-.2-.18-.22-.76-.08-.94-.16-1.06-.36s-.16-.4-.16-2.04V-4.74c0-.5.02-1.48.02-2.2a2.65,2.65,0,0,0-2.84-2.74,3.589,3.589,0,0,0-3.04,1.84c0-.52.02-1.08.04-1.6,0-.1-.08-.18-.22-.18a18.89,18.89,0,0,1-2.58.82c-.22.04-.26.1-.26.22,0,.26.04.3.18.3Zm15.36,6.44c-.98,0-1.34-.28-1.34-.62,0-.48.34-.92,1.18-1.36a2.666,2.666,0,0,0,.56.06c2.1,0,3.4-1.24,3.4-3.02a2.519,2.519,0,0,0-.78-1.78c.6,0,1.3,0,1.98.06.1,0,.14-.02.2-.14l.24-.6c0-.1-.04-.12-.12-.12-.82.08-2.02.14-3.1.14a4.059,4.059,0,0,0-1.82-.44,3.243,3.243,0,0,0-3.46,3,2.758,2.758,0,0,0,2.2,2.72c-1.26.56-1.84,1.18-1.84,1.88,0,.68.28,1.06,1.26,1.36-1.28.5-1.98,1.32-1.98,2.32,0,1.38,1.6,2.5,3.94,2.5,3.28,0,4.86-1.52,4.86-3.46,0-1.68-1-2.54-3.36-2.54Zm1.78,1.38c1.64,0,2.28.48,2.28,1.5,0,1.36-1.22,2.52-3.18,2.52-1.7,0-2.8-.88-2.8-2.24a2.032,2.032,0,0,1,.7-1.54,3.349,3.349,0,0,1,.48-.3c.42.04.86.06,1.3.06Zm-1.38-8.68c1.06,0,1.92.88,1.92,2.4,0,1.56-.84,2.46-1.9,2.46-1.1,0-1.92-.88-1.92-2.46C-178.7-8.3-177.92-9.18-176.8-9.18Zm17.32,1.54c1.36-.1,2.58-.1,3.86-.1,1.26,0,2.46,0,3.76.1v3.38c0,1.92-.08,2.38-.24,2.66-.14.24-.38.36-1.46.46-.16.02-.18.06-.18.24,0,.2.04.26.18.26.72-.04,1.74-.08,2.54-.08s1.82.04,2.68.08c.12,0,.16-.04.16-.26,0-.2-.02-.22-.16-.24-1.26-.1-1.48-.22-1.64-.46-.16-.26-.22-.44-.22-2.2v-7.48c0-1.88.1-2.32.24-2.54s.38-.38,1.5-.46c.16-.02.2-.06.2-.24,0-.28-.04-.32-.2-.32-.76.04-1.76.1-2.56.1s-1.86-.06-2.64-.1c-.14,0-.18.04-.18.32,0,.18.04.22.18.24,1.24.1,1.46.26,1.58.46.16.26.22.6.22,2.54v2.76c-1.3.06-2.5.06-3.76.06-1.28,0-2.5,0-3.86-.06v-3.24a4.387,4.387,0,0,1,.24-2.06c.16-.26.36-.34,1.48-.46.14-.02.2-.04.2-.24,0-.28-.06-.32-.2-.32-.74.04-1.74.1-2.54.1s-1.84-.06-2.64-.1c-.12,0-.16.04-.16.32,0,.2.02.22.16.24,1.2.1,1.48.24,1.6.46.16.3.22.54.22,2.54v7.02c0,2-.08,2.44-.24,2.66-.18.26-.42.36-1.5.46-.14.02-.16.06-.16.24,0,.2.04.26.16.26.76-.04,1.76-.08,2.56-.08s1.84.04,2.64.08c.16,0,.2-.06.2-.26s-.04-.22-.2-.24c-1.18-.1-1.46-.22-1.6-.46-.18-.3-.22-.44-.22-2.14Zm23.22,6.52c-.52-.02-.68-.12-.78-.32-.12-.22-.14-.44-.14-1.98V-6.06c0-1.34.02-2.26.06-3.36a.2.2,0,0,0-.22-.2,24.513,24.513,0,0,1-2.58.52c-.2.04-.22.08-.22.28,0,.18.04.24.18.24l.64-.04a.587.587,0,0,1,.56.42,4.511,4.511,0,0,1,.14,1.6v2.68a2.068,2.068,0,0,1-.44,1.52,2.451,2.451,0,0,1-1.98,1.12,1.766,1.766,0,0,1-1.68-1.04,3.654,3.654,0,0,1-.24-1.74v-2c0-1.34.02-2.24.06-3.38,0-.1-.08-.18-.22-.18-.78.2-1.8.4-2.58.52-.22.04-.24.08-.24.28,0,.18.04.24.18.24l.62-.04a.593.593,0,0,1,.58.42,4.672,4.672,0,0,1,.14,1.6V-3a2.562,2.562,0,0,0,2.8,2.68,3.419,3.419,0,0,0,3-1.8c0,.54-.02,1.06-.04,1.62a.2.2,0,0,0,.2.18,21.313,21.313,0,0,1,2.56-.32c.14-.02.18-.06.18-.24,0-.16-.04-.2-.18-.22Zm3.78-7.2a.573.573,0,0,1,.58.44,4.753,4.753,0,0,1,.14,1.6v2.8c0,1.58-.04,1.8-.18,2.04-.12.2-.26.3-1.04.36-.12.02-.16.06-.16.22,0,.18.04.22.16.22.62-.02,1.32-.04,1.96-.04.62,0,1.38.02,1.96.04.1,0,.14-.04.14-.22,0-.16-.04-.2-.14-.22-.84-.08-1.06-.18-1.14-.36a5.989,5.989,0,0,1-.12-2.04V-6.04a2.189,2.189,0,0,1,.42-1.52A2.169,2.169,0,0,1-128-8.7a1.7,1.7,0,0,1,1.64,1.02,2.243,2.243,0,0,1,.2,1.1v3.1c0,1.56-.04,1.8-.16,2.04-.1.2-.26.28-1.06.36-.14.02-.18.06-.18.24,0,.16.04.2.16.2.62-.02,1.38-.04,2.04-.04.56,0,1.32.02,1.94.04.12,0,.16-.04.16-.2,0-.18-.04-.22-.16-.24-.9-.08-1.06-.16-1.18-.36-.1-.18-.16-.48-.16-2.04V-6.04a2.1,2.1,0,0,1,.46-1.52,2.195,2.195,0,0,1,1.92-1.14,1.581,1.581,0,0,1,1.6,1.02,2.282,2.282,0,0,1,.22,1.14v3.06c0,1.66-.04,1.84-.16,2.04s-.3.3-1.06.36c-.14.02-.18.06-.18.22,0,.18.04.22.18.22.66-.02,1.4-.04,2.04-.04.62,0,1.36.02,1.92.04.12,0,.16-.04.16-.22,0-.16-.04-.2-.16-.22-.86-.08-1.08-.2-1.16-.36-.1-.2-.12-.4-.12-2.04V-4.74c0-.5.02-1.48.02-2.2a2.546,2.546,0,0,0-2.72-2.74,3.585,3.585,0,0,0-3.06,1.98,2.454,2.454,0,0,0-2.52-1.98,3.486,3.486,0,0,0-2.94,1.86c0-.52.02-1.1.04-1.62,0-.1-.08-.18-.22-.18a21.245,21.245,0,0,1-2.6.82c-.2.06-.24.1-.24.24,0,.24.04.28.16.28Zm24.02,1.18c.02-1.88-.7-2.56-2.68-2.56-1.9,0-3.6,1.24-3.6,2.32a.477.477,0,0,0,.54.54c.76,0,1.28-.4,1.28-.86a1.189,1.189,0,0,1,.36-.98,1.92,1.92,0,0,1,1.36-.48c.88,0,1.28.62,1.28,2.04v.52a1.017,1.017,0,0,1-.44.76,5.569,5.569,0,0,1-1.58.68,5.649,5.649,0,0,0-2.38,1.06A2.277,2.277,0,0,0-115-2.34a2.07,2.07,0,0,0,2.3,2.02,3.841,3.841,0,0,0,2.86-1.1,1.447,1.447,0,0,0,1.42,1,2.579,2.579,0,0,0,1.48-.5.145.145,0,0,0,.08-.12c0-.14-.12-.3-.22-.3a.461.461,0,0,0-.18.06.732.732,0,0,1-.48.16c-.46,0-.78-.46-.76-1.7Zm-1.48,4.38a1.827,1.827,0,0,1-2.02,1.68,1.487,1.487,0,0,1-1.46-1.54c0-.98.5-1.52,1.66-1.96,1.26-.46,1.62-.66,1.84-.94Zm6.04-5.56c.26,0,.42.12.56.42a4.13,4.13,0,0,1,.16,1.62v2.8c0,1.54-.06,1.86-.18,2.04-.14.2-.3.3-1.02.36-.12.02-.16.06-.16.22,0,.18.04.22.16.22.6-.02,1.34-.04,2-.04.6,0,1.28.02,1.88.04.12,0,.16-.04.16-.22,0-.16-.04-.2-.16-.22-.84-.08-.98-.14-1.12-.36-.1-.16-.14-.4-.14-2.04V-6.04a2.12,2.12,0,0,1,.44-1.54A2.469,2.469,0,0,1-99.3-8.7a1.726,1.726,0,0,1,1.72,1.02,2.172,2.172,0,0,1,.22,1.14v3.06c0,1.66-.06,1.86-.18,2.04-.14.22-.36.32-1.02.36-.14.02-.18.06-.18.22,0,.18.04.22.18.22.62-.02,1.36-.04,2-.04.6,0,1.3.02,1.88.04.14,0,.18-.04.18-.22,0-.16-.04-.2-.18-.22-.76-.08-.94-.16-1.06-.36s-.16-.4-.16-2.04V-4.74c0-.5.02-1.48.02-2.2a2.65,2.65,0,0,0-2.84-2.74,3.589,3.589,0,0,0-3.04,1.84c0-.52.02-1.08.04-1.6,0-.1-.08-.18-.22-.18a18.89,18.89,0,0,1-2.58.82c-.22.04-.26.1-.26.22,0,.26.04.3.18.3Zm21.64,1.08c.46.04,1.06.06,1.58.06,4.24,0,6.02-1.54,6.02-3.98,0-2.38-1.58-3.7-5.16-3.7-1.3,0-2.56.1-3.3.1-.78,0-1.88-.04-2.68-.08-.14,0-.18.04-.18.32,0,.18.04.22.18.24,1.16.08,1.52.22,1.68.48s.22.5.22,2.2v7.34c0,1.98-.08,2.34-.24,2.62s-.42.4-1.5.48c-.12.02-.16.06-.16.26,0,.22.04.26.16.26.76-.04,1.8-.08,2.6-.08.78,0,1.82.04,2.62.08.16,0,.2-.04.2-.26,0-.2-.04-.24-.2-.26-1.16-.1-1.44-.22-1.62-.48s-.22-.52-.22-2.26Zm0-4.06c0-1.84.08-2.2.28-2.46s.58-.42,1.74-.42c2.44,0,3.72,1.14,3.72,3.1,0,2-1.44,3.24-4.18,3.24a9.161,9.161,0,0,1-1.56-.12ZM-68.3-9.7a4.486,4.486,0,0,0-4.28,4.76A4.312,4.312,0,0,0-68.3-.32c2.44,0,4.3-1.98,4.3-4.74A4.333,4.333,0,0,0-68.3-9.7Zm0,.6c1.5,0,2.62,1.18,2.62,4.1,0,2.72-1.12,4.08-2.62,4.08-1.54,0-2.58-1.24-2.58-4.08C-70.88-7.74-69.8-9.1-68.3-9.1Zm8.4.5-.04,2.74c0,.9-.04,1.8-.04,2.72A3.043,3.043,0,0,0-59.38-1a2.389,2.389,0,0,0,1.86.68,2.907,2.907,0,0,0,2.1-1.06.173.173,0,0,0,.06-.12.383.383,0,0,0-.3-.32.173.173,0,0,0-.12.06,1.845,1.845,0,0,1-1.26.54,1.28,1.28,0,0,1-1.06-.52,3.271,3.271,0,0,1-.4-2l.04-4.9c.68,0,1.78,0,2.5.06a.193.193,0,0,0,.2-.14l.18-.56c0-.1-.02-.12-.12-.12-.8.02-1.98.04-2.72.04,0-.6.04-1.42.06-1.92,0-.16-.04-.2-.26-.2-.2,0-.26.06-.3.18a4.505,4.505,0,0,1-.8,1.36,2.913,2.913,0,0,1-1.42.8c-.18.04-.2.1-.2.3,0,.24.04.26.2.26Zm8.62,2.74c.62-.02,1.28-.02,1.96-.02,1.24,0,2.56.02,3.94.06a.27.27,0,0,0,.2-.1.276.276,0,0,0,.1-.24,3.61,3.61,0,0,0-3.6-3.54c-2.44,0-4.28,2.06-4.28,4.76A4.275,4.275,0,0,0-48.64-.32a3.712,3.712,0,0,0,3.36-1.86.43.43,0,0,0,.12-.26c0-.1-.2-.26-.34-.26a.151.151,0,0,0-.14.08,3,3,0,0,1-2.72,1.4c-1.48,0-2.98-1.52-2.98-3.82A6.317,6.317,0,0,1-51.28-5.86Zm.12-.7c.4-1.66,1.38-2.56,2.48-2.56,1.06,0,1.82.92,1.94,2.24,0,.16-.06.26-.2.26-.92.06-1.74.08-2.58.08C-50.04-6.54-50.58-6.54-51.16-6.56Zm9.56-1.76c.26,0,.42.12.56.42a4.13,4.13,0,0,1,.16,1.62v2.8c0,1.54-.06,1.86-.18,2.04-.14.2-.3.3-1.02.36-.12.02-.16.06-.16.22,0,.18.04.22.16.22.6-.02,1.34-.04,2-.04.6,0,1.28.02,1.88.04.12,0,.16-.04.16-.22,0-.16-.04-.2-.16-.22-.84-.08-.98-.14-1.12-.36-.1-.16-.14-.4-.14-2.04V-6.04a2.12,2.12,0,0,1,.44-1.54A2.469,2.469,0,0,1-37-8.7a1.726,1.726,0,0,1,1.72,1.02,2.172,2.172,0,0,1,.22,1.14v3.06c0,1.66-.06,1.86-.18,2.04-.14.22-.36.32-1.02.36-.14.02-.18.06-.18.22,0,.18.04.22.18.22.62-.02,1.36-.04,2-.04.6,0,1.3.02,1.88.04.14,0,.18-.04.18-.22,0-.16-.04-.2-.18-.22-.76-.08-.94-.16-1.06-.36s-.16-.4-.16-2.04V-4.74c0-.5.02-1.48.02-2.2a2.65,2.65,0,0,0-2.84-2.74,3.589,3.589,0,0,0-3.04,1.84c0-.52.02-1.08.04-1.6,0-.1-.08-.18-.22-.18a18.891,18.891,0,0,1-2.58.82c-.22.04-.26.1-.26.22,0,.26.04.3.18.3Zm13.04-.28-.04,2.74c0,.9-.04,1.8-.04,2.72A3.043,3.043,0,0,0-28.04-1a2.389,2.389,0,0,0,1.86.68,2.907,2.907,0,0,0,2.1-1.06.173.173,0,0,0,.06-.12.383.383,0,0,0-.3-.32.173.173,0,0,0-.12.06,1.845,1.845,0,0,1-1.26.54,1.28,1.28,0,0,1-1.06-.52,3.271,3.271,0,0,1-.4-2l.04-4.9c.68,0,1.78,0,2.5.06a.193.193,0,0,0,.2-.14l.18-.56c0-.1-.02-.12-.12-.12-.8.02-1.98.04-2.72.04,0-.6.04-1.42.06-1.92,0-.16-.04-.2-.26-.2-.2,0-.26.06-.3.18a4.505,4.505,0,0,1-.8,1.36,2.913,2.913,0,0,1-1.42.8c-.18.04-.2.1-.2.3,0,.24.04.26.2.26Zm8.18,5.08c0,1.6-.04,1.9-.16,2.06-.14.18-.32.26-1.1.34-.12.02-.16.06-.16.22,0,.22.04.26.16.26.58-.02,1.42-.04,2.04-.04.6,0,1.34.02,1.94.04.12,0,.16-.04.16-.26,0-.16-.04-.2-.16-.22-.82-.06-1.08-.16-1.18-.34s-.12-.44-.12-2.06v-2.5c0-.94.02-2.02.08-3.44q0-.18-.24-.18a24.741,24.741,0,0,1-2.66.82c-.2.06-.24.08-.24.26,0,.22.04.26.16.26l.74-.04a.575.575,0,0,1,.58.4,4.66,4.66,0,0,1,.16,1.64Zm.58-11.62a1.2,1.2,0,0,0-1.12,1.12A1.158,1.158,0,0,0-19.8-12.9a1.158,1.158,0,0,0,1.12-1.12A1.2,1.2,0,0,0-19.8-15.14Zm11.5,8C-8.28-9.02-9-9.7-10.98-9.7c-1.9,0-3.6,1.24-3.6,2.32a.477.477,0,0,0,.54.54c.76,0,1.28-.4,1.28-.86a1.189,1.189,0,0,1,.36-.98,1.92,1.92,0,0,1,1.36-.48c.88,0,1.28.62,1.28,2.04v.52a1.017,1.017,0,0,1-.44.76,5.569,5.569,0,0,1-1.58.68A5.649,5.649,0,0,0-14.16-4.1a2.277,2.277,0,0,0-.68,1.76,2.07,2.07,0,0,0,2.3,2.02,3.841,3.841,0,0,0,2.86-1.1,1.447,1.447,0,0,0,1.42,1,2.579,2.579,0,0,0,1.48-.5.145.145,0,0,0,.08-.12c0-.14-.12-.3-.22-.3a.461.461,0,0,0-.18.06.732.732,0,0,1-.48.16c-.46,0-.78-.46-.76-1.7ZM-9.78-2.76A1.827,1.827,0,0,1-11.8-1.08a1.487,1.487,0,0,1-1.46-1.54c0-.98.5-1.52,1.66-1.96,1.26-.46,1.62-.66,1.84-.94Zm6.46-.76a4.788,4.788,0,0,1-.2,2.06c-.1.2-.24.3-1.06.36-.12.02-.16.06-.16.24s.04.22.16.22c.64-.02,1.42-.04,2.08-.04.58,0,1.3.02,1.9.04.14,0,.18-.04.18-.22S-.46-1.08-.6-1.1c-.84-.08-1.02-.16-1.14-.36S-1.9-1.9-1.9-3.52v-7.16c0-1.9.02-3.38.08-4.76,0-.1-.08-.16-.2-.16a25.243,25.243,0,0,1-2.72.8c-.18.04-.22.08-.22.28s.04.24.16.24l.7-.04a.6.6,0,0,1,.62.4,4.66,4.66,0,0,1,.16,1.64Z" transform="translate(1920 416)" fill="#bbb"/></g></svg>